<?xml version="1.0" encoding="utf-8"?>
<!-- Generator: Adobe Illustrator 24.3.0, SVG Export Plug-In . SVG Version: 6.00 Build 0)  -->
<svg version="1.1" id="Layer_1" xmlns="http://www.w3.org/2000/svg" xmlns:xlink="http://www.w3.org/1999/xlink" x="0px" y="0px"
	 viewBox="0 0 595.276 841.89" enable-background="new 0 0 595.276 841.89" xml:space="preserve">
<g>
	<g>
		<defs>
			<rect id="SVGID_1_" x="122.901" y="254.542" width="240.391" height="226.415"/>
		</defs>
		<clipPath id="SVGID_2_">
			<use xlink:href="#SVGID_1_"  overflow="visible"/>
		</clipPath>
		<g clip-path="url(#SVGID_2_)">
			<defs>
				<rect id="SVGID_3_" x="122.901" y="254.542" width="240.391" height="226.415"/>
			</defs>
			<clipPath id="SVGID_4_">
				<use xlink:href="#SVGID_3_"  overflow="visible"/>
			</clipPath>
			<g clip-path="url(#SVGID_4_)">
				<defs>
					<rect id="SVGID_5_" x="122.901" y="254.542" width="240.391" height="226.415"/>
				</defs>
				<clipPath id="SVGID_6_">
					<use xlink:href="#SVGID_5_"  overflow="visible"/>
				</clipPath>
				<g opacity="0.5" clip-path="url(#SVGID_6_)">
					<g>
						<defs>
							<rect id="SVGID_7_" x="137.951" y="285.867" width="201" height="127.001"/>
						</defs>
						<clipPath id="SVGID_8_">
							<use xlink:href="#SVGID_7_"  overflow="visible"/>
						</clipPath>
						<path clip-path="url(#SVGID_8_)" fill="#FFFFFF" d="M161.452,410.868c-0.276,0-0.5,0.224-0.5,0.5v1c0,0.276,0.224,0.5,0.5,0.5
							s0.5-0.224,0.5-0.5v-1C161.952,411.091,161.728,410.868,161.452,410.868"/>
						<path clip-path="url(#SVGID_8_)" fill="#FFFFFF" d="M337.934,365.046c0.005-0.226,0.018-0.45,0.018-0.677
							c0-19.725-15.029-35.936-34.261-37.815c-7.206-16.793-25.276-26.998-44.008-23.554c-5.1,0.938-9.787,2.813-13.936,5.4
							c-6.622-13.351-20.384-22.532-36.296-22.532c-22.322,0-40.423,18.06-40.497,40.365c-18.082,5.535-31.003,20.182-31.003,37.385
							c0,4.119,0.741,8.093,2.116,11.829c1.311,15.637,14.408,27.921,30.384,27.921h138c16.845,0,30.5-13.655,30.5-30.5
							C338.952,370.163,338.596,367.542,337.934,365.046"/>
					</g>
				</g>
			</g>
		</g>
	</g>
</g>
</svg>
